<?xml version="1.0" standalone="no"?>
<!DOCTYPE svg PUBLIC "-//W3C//DTD SVG 20010904//EN"
 "http://www.w3.org/TR/2001/REC-SVG-20010904/DTD/svg10.dtd">
<svg version="1.0" xmlns="http://www.w3.org/2000/svg"
 width="320.000000pt" height="320.000000pt" viewBox="0 0 320.000000 320.000000"
 preserveAspectRatio="xMidYMid meet">
<g transform="translate(0.000000,320.000000) scale(0.100000,-0.100000)"
fill="#000000" stroke="none">
<path d="M2065 3085 c-140 -21 -246 -49 -425 -110 -297 -102 -367 -137 -610
-298 -252 -168 -374 -278 -504 -454 -199 -268 -226 -492 -81 -675 54 -68 115
-107 185 -115 51 -6 55 -9 186 -139 143 -142 408 -374 589 -515 120 -94 306
-229 315 -229 3 0 2 36 -4 80 -5 44 -7 83 -4 86 3 2 30 -11 59 -31 80 -53 136
-77 158 -70 30 9 80 83 98 144 30 105 1 207 -79 275 -50 43 -91 56 -177 56
-100 0 -197 -59 -233 -141 -7 -16 -17 -29 -22 -29 -31 0 -744 648 -771 701
-15 28 -14 32 35 129 61 117 108 164 236 236 74 42 95 60 159 140 103 128 198
205 340 276 142 72 239 98 424 117 87 9 100 14 175 60 45 27 99 54 121 60 55
15 135 14 183 -3 44 -16 52 -10 52 35 0 11 7 30 15 43 21 32 35 156 24 208
-26 113 -109 169 -262 174 -51 2 -132 -3 -182 -11z m153 -97 c3 -21 -7 -39
-43 -77 -54 -57 -94 -76 -121 -56 -22 15 -13 41 32 94 60 71 126 91 132 39z
m-714 -221 c10 -7 17 -22 15 -33 -7 -34 -109 -29 -109 7 0 16 32 39 54 39 12
0 30 -6 40 -13z m244 1 c20 -20 14 -45 -19 -83 -20 -22 -40 -35 -55 -35 -51 0
-41 69 15 107 39 27 43 27 59 11z m-628 -303 c34 -41 -15 -75 -112 -75 -82 0
-98 6 -98 37 0 18 9 28 33 38 44 19 161 20 177 0z m-390 -340 c0 -50 -23 -105
-43 -105 -37 0 -48 55 -23 115 12 27 21 35 40 35 24 0 26 -3 26 -45z"/>
<path d="M2046 2483 c-60 -20 -152 -102 -177 -158 -26 -56 -26 -195 0 -250 54
-119 192 -177 345 -145 91 19 169 102 196 212 15 58 0 160 -32 224 -56 112
-196 162 -332 117z"/>
<path d="M1135 1981 c-60 -16 -75 -25 -111 -65 -65 -71 -88 -127 -92 -223 -4
-74 -1 -87 23 -131 29 -53 89 -121 131 -149 17 -11 56 -18 124 -21 117 -5 151
7 243 88 71 64 82 98 73 228 -7 110 -20 137 -98 203 -108 90 -163 104 -293 70z"/>
<path d="M1919 1756 c-90 -32 -183 -118 -195 -181 -11 -59 1 -186 21 -225 34
-67 75 -109 137 -139 143 -72 313 -19 379 116 17 34 23 70 27 142 l4 96 -34
50 c-88 127 -223 183 -339 141z"/>
<path d="M2553 1380 c-60 -12 -96 -34 -137 -81 -75 -88 -89 -231 -30 -325 42
-70 132 -115 240 -122 l77 -5 -6 79 c-7 89 -62 407 -77 442 -5 12 -13 22 -17
21 -5 -1 -27 -5 -50 -9z"/>
<path d="M2410 683 c-73 -37 -104 -91 -105 -179 0 -54 4 -68 31 -105 42 -58
102 -89 168 -88 84 1 127 19 161 67 27 40 30 50 30 125 0 59 -5 91 -18 114
-49 90 -164 119 -267 66z"/>
<path d="M1916 527 c-9 -7 -20 -31 -23 -52 l-5 -40 64 -37 c34 -20 65 -32 67
-26 2 5 0 34 -4 65 -10 81 -55 122 -99 90z"/>
<path d="M2217 375 c-13 -12 -34 -102 -25 -110 2 -1 57 -30 123 -63 154 -76
253 -112 322 -115 49 -2 57 1 79 26 36 42 31 53 -25 60 -63 7 -262 98 -365
165 -43 29 -82 52 -87 52 -4 0 -14 -7 -22 -15z"/>
</g>
</svg>
